STARTFONT 2.1
FONT -FontForge-Nasalization-Book-R-Normal--14-100-100-100-P-92-ISO10646-1
SIZE 10 100 100
FONTBOUNDINGBOX 15 14 -1 -3
COMMENT "Generated by fontforge, http://fontforge.sourceforge.net"
COMMENT "(c) 1999-2024 Typodermic Fonts Inc."
STARTPROPERTIES 39
FOUNDRY "FontForge"
FAMILY_NAME "Nasalization"
WEIGHT_NAME "Book"
SLANT "R"
SETWIDTH_NAME "Normal"
ADD_STYLE_NAME ""
PIXEL_SIZE 14
POINT_SIZE 100
RESOLUTION_X 100
RESOLUTION_Y 100
SPACING "P"
AVERAGE_WIDTH 92
CHARSET_REGISTRY "ISO10646"
CHARSET_ENCODING "1"
FONTNAME_REGISTRY ""
CHARSET_COLLECTIONS "ISO10646-1"
FONT_NAME "Nasalization-Regular"
FACE_NAME "Nasalization Regular"
COPYRIGHT "(c) 1999-2024 Typodermic Fonts Inc."
FONT_VERSION "5.100"
FONT_ASCENT 11
FONT_DESCENT 3
UNDERLINE_POSITION -1
UNDERLINE_THICKNESS 1
X_HEIGHT 6
CAP_HEIGHT 8
RAW_ASCENT 800
RAW_DESCENT 200
NORM_SPACE 4
RELATIVE_WEIGHT 40
RELATIVE_SETWIDTH 50
SUPERSCRIPT_X 0
SUPERSCRIPT_Y 4
SUPERSCRIPT_SIZE 4
SUBSCRIPT_X 0
SUBSCRIPT_Y 0
SUBSCRIPT_SIZE 4
AVG_LOWERCASE_WIDTH 86
AVG_UPPERCASE_WIDTH 101
ENDPROPERTIES
CHARS 66
STARTCHAR space
ENCODING 32
SWIDTH 267 0
DWIDTH 4 0
BBX 1 1 0 0
BITMAP
00
ENDCHAR
STARTCHAR dollar
ENCODING 36
SWIDTH 620 0
DWIDTH 9 0
BBX 7 11 1 -1
BITMAP
10
10
FC
80
C0
7C
06
06
FC
10
10
ENDCHAR
STARTCHAR zero
ENCODING 48
SWIDTH 748 0
DWIDTH 10 0
BBX 8 10 1 0
BITMAP
18
7E
C3
C3
81
81
C1
C3
7F
3E
ENDCHAR
STARTCHAR one
ENCODING 49
SWIDTH 337 0
DWIDTH 5 0
BBX 4 9 0 0
BITMAP
E0
30
30
30
30
30
30
30
30
ENDCHAR
STARTCHAR two
ENCODING 50
SWIDTH 734 0
DWIDTH 10 0
BBX 8 9 1 0
BITMAP
FF
01
01
07
7E
E0
C0
FF
FF
ENDCHAR
STARTCHAR three
ENCODING 51
SWIDTH 681 0
DWIDTH 10 0
BBX 8 9 1 0
BITMAP
FE
03
03
06
3E
03
03
FF
FE
ENDCHAR
STARTCHAR four
ENCODING 52
SWIDTH 704 0
DWIDTH 10 0
BBX 9 9 0 0
BITMAP
0F80
1980
3180
6180
6180
E180
7F80
0180
0180
ENDCHAR
STARTCHAR five
ENCODING 53
SWIDTH 685 0
DWIDTH 10 0
BBX 8 9 1 0
BITMAP
FE
C0
C0
FC
FF
03
03
FF
FE
ENDCHAR
STARTCHAR six
ENCODING 54
SWIDTH 713 0
DWIDTH 10 0
BBX 8 9 1 0
BITMAP
7F
E0
C0
FC
FF
C1
C1
7F
3E
ENDCHAR
STARTCHAR seven
ENCODING 55
SWIDTH 651 0
DWIDTH 9 0
BBX 9 9 0 0
BITMAP
FF00
0180
0300
0300
0600
0C00
0C00
1800
3000
ENDCHAR
STARTCHAR eight
ENCODING 56
SWIDTH 726 0
DWIDTH 10 0
BBX 8 9 1 0
BITMAP
FF
C3
81
C3
7E
C1
81
FF
7E
ENDCHAR
STARTCHAR nine
ENCODING 57
SWIDTH 713 0
DWIDTH 10 0
BBX 8 9 1 0
BITMAP
FE
C7
83
C3
FF
03
03
7E
7C
ENDCHAR
STARTCHAR equal
ENCODING 61
SWIDTH 619 0
DWIDTH 9 0
BBX 7 5 1 2
BITMAP
FE
00
00
00
FE
ENDCHAR
STARTCHAR A
ENCODING 65
SWIDTH 784 0
DWIDTH 11 0
BBX 11 10 0 0
BITMAP
0400
0E00
1B00
1B00
3180
3180
2080
60C0
60C0
C060
ENDCHAR
STARTCHAR B
ENCODING 66
SWIDTH 719 0
DWIDTH 10 0
BBX 8 9 1 0
BITMAP
FF
C3
C1
C3
FE
C3
C1
FF
FE
ENDCHAR
STARTCHAR C
ENCODING 67
SWIDTH 682 0
DWIDTH 10 0
BBX 8 9 1 0
BITMAP
7F
E0
C0
80
80
C0
C0
7F
3F
ENDCHAR
STARTCHAR D
ENCODING 68
SWIDTH 737 0
DWIDTH 10 0
BBX 9 9 1 0
BITMAP
FE00
C300
C100
C100
C180
C100
C300
FF00
FE00
ENDCHAR
STARTCHAR E
ENCODING 69
SWIDTH 693 0
DWIDTH 10 0
BBX 8 9 1 0
BITMAP
FF
C0
C0
E0
7F
C0
C0
FF
7F
ENDCHAR
STARTCHAR F
ENCODING 70
SWIDTH 663 0
DWIDTH 9 0
BBX 7 9 1 0
BITMAP
7E
C0
C0
C0
FE
C0
C0
C0
C0
ENDCHAR
STARTCHAR G
ENCODING 71
SWIDTH 729 0
DWIDTH 10 0
BBX 8 9 1 0
BITMAP
7F
E0
C0
8E
8F
C1
C1
7F
3E
ENDCHAR
STARTCHAR H
ENCODING 72
SWIDTH 745 0
DWIDTH 10 0
BBX 8 9 1 0
BITMAP
C1
C1
C1
FF
FF
C1
C1
C1
C1
ENDCHAR
STARTCHAR I
ENCODING 73
SWIDTH 281 0
DWIDTH 4 0
BBX 2 9 1 0
BITMAP
C0
C0
C0
C0
C0
C0
C0
C0
C0
ENDCHAR
STARTCHAR J
ENCODING 74
SWIDTH 583 0
DWIDTH 8 0
BBX 7 9 0 0
BITMAP
06
06
06
06
06
06
06
FE
FC
ENDCHAR
STARTCHAR K
ENCODING 75
SWIDTH 708 0
DWIDTH 10 0
BBX 8 9 1 0
BITMAP
C3
C2
C6
CC
FC
C6
C6
C3
C1
ENDCHAR
STARTCHAR L
ENCODING 76
SWIDTH 622 0
DWIDTH 9 0
BBX 7 9 1 0
BITMAP
C0
C0
C0
C0
C0
C0
C0
FE
7E
ENDCHAR
STARTCHAR M
ENCODING 77
SWIDTH 1102 0
DWIDTH 15 0
BBX 13 10 1 0
BITMAP
6030
F878
D848
D8C8
C8C8
CCC8
CC88
CD88
C588
C708
ENDCHAR
STARTCHAR N
ENCODING 78
SWIDTH 879 0
DWIDTH 12 0
BBX 10 10 1 0
BITMAP
6000
F040
D840
D840
CC40
CC40
C640
C640
C3C0
C3C0
ENDCHAR
STARTCHAR O
ENCODING 79
SWIDTH 816 0
DWIDTH 11 0
BBX 10 9 1 0
BITMAP
7F00
E180
C080
80C0
80C0
C0C0
C180
7F80
3F00
ENDCHAR
STARTCHAR P
ENCODING 80
SWIDTH 679 0
DWIDTH 10 0
BBX 8 9 1 0
BITMAP
FE
03
03
03
FE
C0
C0
C0
C0
ENDCHAR
STARTCHAR Q
ENCODING 81
SWIDTH 816 0
DWIDTH 11 0
BBX 10 10 1 -1
BITMAP
7F00
E180
C080
80C0
80C0
CCC0
C580
7F80
3F00
0300
ENDCHAR
STARTCHAR R
ENCODING 82
SWIDTH 714 0
DWIDTH 10 0
BBX 8 9 1 0
BITMAP
FF
03
01
03
FF
C4
C6
C3
C3
ENDCHAR
STARTCHAR S
ENCODING 83
SWIDTH 703 0
DWIDTH 10 0
BBX 8 9 1 0
BITMAP
FE
C0
80
FC
7F
03
03
FF
FE
ENDCHAR
STARTCHAR T
ENCODING 84
SWIDTH 571 0
DWIDTH 8 0
BBX 8 9 0 0
BITMAP
FF
18
18
18
18
18
18
18
18
ENDCHAR
STARTCHAR U
ENCODING 85
SWIDTH 732 0
DWIDTH 10 0
BBX 8 9 1 0
BITMAP
C1
C1
C1
C1
C1
C1
C3
FF
7E
ENDCHAR
STARTCHAR V
ENCODING 86
SWIDTH 784 0
DWIDTH 11 0
BBX 9 9 1 0
BITMAP
8080
C180
C180
6300
6300
2200
3600
3E00
1C00
ENDCHAR
STARTCHAR W
ENCODING 87
SWIDTH 1046 0
DWIDTH 15 0
BBX 13 10 1 0
BITMAP
0200
8F18
8D18
8D98
C998
C998
D890
D890
D8F0
70F0
ENDCHAR
STARTCHAR X
ENCODING 88
SWIDTH 781 0
DWIDTH 11 0
BBX 9 9 1 0
BITMAP
C180
6300
3600
1C00
1C00
3600
6300
6300
C180
ENDCHAR
STARTCHAR Y
ENCODING 89
SWIDTH 689 0
DWIDTH 10 0
BBX 8 9 1 0
BITMAP
C3
46
64
3C
18
18
18
18
18
ENDCHAR
STARTCHAR Z
ENCODING 90
SWIDTH 743 0
DWIDTH 10 0
BBX 9 9 1 0
BITMAP
FF00
0180
0300
0F00
3C00
E000
C000
FF00
FF00
ENDCHAR
STARTCHAR a
ENCODING 97
SWIDTH 672 0
DWIDTH 9 0
BBX 7 7 1 0
BITMAP
FE
02
02
FE
82
C2
7E
ENDCHAR
STARTCHAR b
ENCODING 98
SWIDTH 695 0
DWIDTH 10 0
BBX 8 11 1 0
BITMAP
C0
C0
C0
C0
FE
C3
C3
C1
C3
E7
7E
ENDCHAR
STARTCHAR c
ENCODING 99
SWIDTH 602 0
DWIDTH 8 0
BBX 7 7 1 0
BITMAP
7E
C0
80
80
80
C0
7E
ENDCHAR
STARTCHAR d
ENCODING 100
SWIDTH 695 0
DWIDTH 10 0
BBX 8 11 1 0
BITMAP
03
03
03
03
7F
C3
83
83
83
C6
7E
ENDCHAR
STARTCHAR e
ENCODING 101
SWIDTH 652 0
DWIDTH 9 0
BBX 7 7 1 0
BITMAP
FE
82
82
FE
80
C0
7E
ENDCHAR
STARTCHAR f
ENCODING 102
SWIDTH 375 0
DWIDTH 5 0
BBX 5 11 0 0
BITMAP
18
38
60
60
F8
60
60
60
60
60
60
ENDCHAR
STARTCHAR g
ENCODING 103
SWIDTH 692 0
DWIDTH 10 0
BBX 8 10 1 -3
BITMAP
7E
C3
83
83
83
FF
3F
03
06
FE
ENDCHAR
STARTCHAR h
ENCODING 104
SWIDTH 707 0
DWIDTH 10 0
BBX 8 11 1 0
BITMAP
C0
C0
C0
C0
FE
C3
C3
C3
C3
C3
C3
ENDCHAR
STARTCHAR i
ENCODING 105
SWIDTH 258 0
DWIDTH 4 0
BBX 2 10 1 0
BITMAP
C0
C0
00
C0
C0
C0
C0
C0
C0
C0
ENDCHAR
STARTCHAR j
ENCODING 106
SWIDTH 270 0
DWIDTH 4 0
BBX 4 13 -1 -3
BITMAP
30
30
00
30
30
30
30
30
30
30
30
30
E0
ENDCHAR
STARTCHAR k
ENCODING 107
SWIDTH 602 0
DWIDTH 8 0
BBX 7 11 1 0
BITMAP
C0
C0
C0
C0
C4
CC
C8
F8
CC
C4
C6
ENDCHAR
STARTCHAR l
ENCODING 108
SWIDTH 258 0
DWIDTH 4 0
BBX 2 11 1 0
BITMAP
C0
C0
C0
C0
C0
C0
C0
C0
C0
C0
C0
ENDCHAR
STARTCHAR m
ENCODING 109
SWIDTH 1032 0
DWIDTH 14 0
BBX 12 7 1 0
BITMAP
FFF0
C630
C610
C610
C610
C610
C610
ENDCHAR
STARTCHAR n
ENCODING 110
SWIDTH 707 0
DWIDTH 10 0
BBX 8 7 1 0
BITMAP
FE
C3
C3
C3
C3
C3
C3
ENDCHAR
STARTCHAR o
ENCODING 111
SWIDTH 671 0
DWIDTH 9 0
BBX 8 7 1 0
BITMAP
7E
C2
83
83
83
C6
7C
ENDCHAR
STARTCHAR p
ENCODING 112
SWIDTH 693 0
DWIDTH 10 0
BBX 8 10 1 -3
BITMAP
7E
C3
C3
C3
C3
C7
FE
C0
C0
C0
ENDCHAR
STARTCHAR q
ENCODING 113
SWIDTH 693 0
DWIDTH 10 0
BBX 8 10 1 -3
BITMAP
7E
C3
83
83
83
C3
7F
03
03
03
ENDCHAR
STARTCHAR r
ENCODING 114
SWIDTH 463 0
DWIDTH 6 0
BBX 5 7 1 0
BITMAP
F8
C0
C0
C0
C0
C0
C0
ENDCHAR
STARTCHAR s
ENCODING 115
SWIDTH 586 0
DWIDTH 8 0
BBX 7 7 1 0
BITMAP
FC
80
80
7C
06
04
FC
ENDCHAR
STARTCHAR t
ENCODING 116
SWIDTH 375 0
DWIDTH 5 0
BBX 5 9 0 0
BITMAP
60
60
F8
60
60
60
60
60
38
ENDCHAR
STARTCHAR u
ENCODING 117
SWIDTH 702 0
DWIDTH 10 0
BBX 8 7 1 0
BITMAP
C3
C3
C3
C3
C3
E7
7E
ENDCHAR
STARTCHAR v
ENCODING 118
SWIDTH 677 0
DWIDTH 9 0
BBX 8 7 1 0
BITMAP
83
C2
C6
46
6C
2C
38
ENDCHAR
STARTCHAR w
ENCODING 119
SWIDTH 977 0
DWIDTH 14 0
BBX 12 8 1 0
BITMAP
0400
8F10
8B30
9930
9930
D9B0
D1A0
70E0
ENDCHAR
STARTCHAR x
ENCODING 120
SWIDTH 681 0
DWIDTH 10 0
BBX 8 7 1 0
BITMAP
C2
64
38
18
2C
66
C3
ENDCHAR
STARTCHAR y
ENCODING 121
SWIDTH 647 0
DWIDTH 9 0
BBX 7 10 1 -3
BITMAP
82
C6
C6
44
6C
38
38
10
30
30
ENDCHAR
STARTCHAR z
ENCODING 122
SWIDTH 624 0
DWIDTH 9 0
BBX 7 7 1 0
BITMAP
FE
02
0E
78
C0
80
FE
ENDCHAR
STARTCHAR degree
ENCODING 176
SWIDTH 389 0
DWIDTH 5 0
BBX 5 5 0 5
BITMAP
30
48
88
48
70
ENDCHAR
ENDFONT
